<?xml version="1.0" encoding="UTF-8" standalone="no"?>
<svg
   xmlns:dc="http://purl.org/dc/elements/1.1/"
   xmlns:cc="http://creativecommons.org/ns#"
   xmlns:rdf="http://www.w3.org/1999/02/22-rdf-syntax-ns#"
   xmlns:svg="http://www.w3.org/2000/svg"
   xmlns="http://www.w3.org/2000/svg"
   viewBox="0 0 708.66248 118.15"
   height="118.15"
   width="708.66248"
   xml:space="preserve"
   version="1.1"
   id="svg2"><metadata
     id="metadata8"><rdf:RDF><cc:Work
         rdf:about=""><dc:format>image/svg+xml</dc:format><dc:type
           rdf:resource="http://purl.org/dc/dcmitype/StillImage" /></cc:Work></rdf:RDF></metadata><defs
     id="defs6" /><g
     transform="matrix(1.25,0,0,-1.25,0,118.15)"
     id="g10"><g
       transform="scale(0.1,0.1)"
       id="g12"><path
         id="path14"
         style="fill:#050301;fill-opacity:1;fill-rule:nonzero;stroke:none"
         d="m 4866.41,162.141 158.65,0 L 4864.84,0 l -158.65,0 160.22,162.141 0,0" /><path
         id="path16"
         style="fill:#050301;fill-opacity:1;fill-rule:nonzero;stroke:none"
         d="m 4652.4,162.141 158.66,0 L 4650.85,0 4492.2,0 l 160.2,162.141 0,0" /><path
         id="path18"
         style="fill:#050301;fill-opacity:1;fill-rule:nonzero;stroke:none"
         d="m 5220.53,162.141 -158.66,0 L 5222.08,0 l 158.66,0 -160.21,162.141 0,0" /><path
         id="path20"
         style="fill:#050301;fill-opacity:1;fill-rule:nonzero;stroke:none"
         d="m 5434.52,162.141 -158.65,0 L 5436.08,0 l 158.66,0 -160.22,162.141 0,0" /><path
         id="path22"
         style="fill:#050301;fill-opacity:1;fill-rule:evenodd;stroke:none"
         d="m 4770.85,605.109 c 0,124.403 100.85,225.254 225.25,225.254 124.42,0 225.26,-100.851 225.26,-225.254 0,-124.421 -100.84,-225.265 -225.26,-225.265 -124.4,0 -225.25,100.844 -225.25,225.265 l 0,0 z m 566.42,6.934 c 27.48,74.957 46.62,189.07 50.58,268.949 l 281.44,-70.051 C 5646.79,480.566 5399,191.203 5031.43,191.32 4615.58,191.465 4454.82,553 4476.46,826.984 l 122.13,38.848 c -19.87,-155.891 28.42,-268.355 61.69,-319.883 -39.62,220.547 126.85,399.09 335.25,399.239 187.43,0.125 342.47,-136.758 341.74,-333.145 l 0,0" /><path
         id="path24"
         style="fill:#050301;fill-opacity:1;fill-rule:evenodd;stroke:none"
         d="m 95.5273,566.207 53.2227,0 c 79.828,0 156.934,-59.352 156.934,-163.051 0,-103.703 -77.106,-163.058 -156.934,-163.058 l -53.2227,0 0,326.109 z M 0,165.051 l 130.328,0 c 146.02,0 274.977,49.121 274.977,238.105 0,188.977 -128.957,238.098 -274.977,238.098 L 0,641.254 0,165.051" /><path
         id="path26"
         style="fill:#050301;fill-opacity:1;fill-rule:evenodd;stroke:none"
         d="m 745.875,259.199 c -34.113,-19.101 -72.32,-35.476 -116.676,-35.476 -56.636,0 -96.211,32.07 -100.304,88.691 l 242.914,0 c 0,122.801 -36.848,212.18 -167.176,212.18 -109.172,0 -163.074,-83.918 -163.074,-185.571 0,-115.3 67.546,-182.156 183.546,-182.156 49.129,0 87.34,9.551 120.77,27.969 l 0,74.363 z m -216.98,115.989 c 4.093,47.07 30.027,82.546 81.199,82.546 51.176,0 71.644,-38.203 74.375,-82.546 l -155.574,0 0,0" /><path
         id="path28"
         style="fill:#050301;fill-opacity:1;fill-rule:nonzero;stroke:none"
         d="m 1136.19,516.406 -91.43,0 0,-171.922 c 0,-45.031 -14.33,-116.66 -80.518,-116.66 -58.676,0 -59.359,57.989 -59.359,100.965 l 0,187.617 -91.438,0 0,-221.726 c 0,-79.141 36.168,-137.813 119.41,-137.813 47.766,0 87.345,21.836 115.315,55.938 l 1.37,0 0,-47.754 86.65,0 0,351.355" /><path
         id="path30"
         style="fill:#050301;fill-opacity:1;fill-rule:nonzero;stroke:none"
         d="m 1245.08,270.801 c 0,-69.59 39.58,-113.934 111.22,-113.934 27.29,0 48.45,2.723 67.55,8.184 l -2.72,72.312 c -9.56,-6.133 -25.25,-9.539 -41.63,-9.539 -34.79,0 -42.98,27.969 -42.98,57.989 l 0,163.738 81.19,0 0,66.855 -81.19,0 0,99.606 -91.44,-29.336 0,-70.27 -67.55,0 0,-66.855 67.55,0 0,-178.75" /><path
         id="path32"
         style="fill:#050301;fill-opacity:1;fill-rule:nonzero;stroke:none"
         d="m 1702.19,511.633 c -28.66,6.137 -56.64,12.961 -99.63,12.961 -71.64,0 -137.82,-33.43 -137.82,-109.164 0,-126.895 158.98,-79.813 158.98,-148.719 0,-34.121 -36.85,-42.988 -60.05,-42.988 -31.38,0 -61.41,8.867 -90.06,23.203 l -5.46,-75.051 c 33.43,-8.867 68.91,-15.008 103.71,-15.008 74.38,0 147.38,32.754 147.38,114.617 0,126.895 -158.98,91.418 -158.98,147.364 0,30.019 29.34,38.886 53.91,38.886 33.43,0 53.9,-5.457 81.87,-15.007 l 6.15,68.906 0,0" /><path
         id="path34"
         style="fill:#050301;fill-opacity:1;fill-rule:nonzero;stroke:none"
         d="m 2012.65,513 c -25.25,7.5 -51.86,11.594 -88.71,11.594 -109.85,0 -169.9,-80.5 -169.9,-182.16 0,-107.11 58,-185.567 173.31,-185.567 37.53,0 64.82,3.406 91.44,11.59 l -4.1,75.734 c -15.69,-6.828 -44.35,-16.367 -70.28,-16.367 -64.14,0 -94.84,49.793 -94.84,114.61 0,66.179 36.16,111.211 92.79,111.211 27.98,0 45.72,-5.461 62.09,-12.969 l 8.2,72.324 0,0" /><path
         id="path36"
         style="fill:#050301;fill-opacity:1;fill-rule:nonzero;stroke:none"
         d="m 2066.35,165.051 91.44,0 0,171.922 c 0,45.031 14.32,116.672 80.51,116.672 58.68,0 59.36,-58 59.36,-100.977 l 0,-187.617 91.43,0 0,221.726 c 0,79.141 -36.16,137.817 -119.4,137.817 -47.77,0 -87.34,-21.828 -110.54,-55.942 l -1.36,0 0,208.082 -91.44,0 0,-511.683" /><path
         id="path38"
         style="fill:#050301;fill-opacity:1;fill-rule:evenodd;stroke:none"
         d="m 2737.64,259.199 c -34.12,-19.101 -72.33,-35.476 -116.68,-35.476 -56.63,0 -96.21,32.07 -100.3,88.691 l 242.9,0 c 0,122.801 -36.84,212.18 -167.17,212.18 -109.17,0 -163.07,-83.918 -163.07,-185.571 0,-115.3 67.55,-182.156 183.55,-182.156 49.12,0 87.33,9.551 120.77,27.969 l 0,74.363 z m -216.98,115.989 c 4.09,47.07 30.02,82.546 81.2,82.546 51.17,0 71.64,-38.203 74.37,-82.546 l -155.57,0 0,0" /><path
         id="path40"
         style="fill:#050301;fill-opacity:1;fill-rule:evenodd;stroke:none"
         d="m 2963.56,165.051 95.52,0 0,180.789 40.27,0 c 102.34,0 183.54,40.265 183.54,151.465 0,113.929 -94.84,143.949 -198.55,143.949 l -120.78,0 0,-476.203 z m 95.52,401.156 33.44,0 c 49.13,0 90.75,-19.102 90.75,-74.359 0,-55.266 -42.99,-70.957 -90.75,-70.957 l -33.44,0 0,145.316" /><path
         id="path42"
         style="fill:#050301;fill-opacity:1;fill-rule:evenodd;stroke:none"
         d="m 3377.81,349.258 c 0,52.531 28.66,104.387 88.03,104.387 60.04,0 88.7,-50.489 88.7,-104.387 0,-58.672 -18.43,-121.434 -88.7,-121.434 -69.6,0 -88.03,63.438 -88.03,121.434 l 0,0 z m -95.52,-10.918 c 0,-100.977 67.54,-181.473 183.55,-181.473 116.67,0 184.23,80.496 184.23,181.473 0,115.976 -79.84,186.254 -184.23,186.254 -103.71,0 -183.55,-70.278 -183.55,-186.254 l 0,0" /><path
         id="path44"
         style="fill:#050301;fill-opacity:1;fill-rule:nonzero;stroke:none"
         d="m 3925.6,511.633 c -28.67,6.137 -56.64,12.961 -99.62,12.961 -71.64,0 -137.83,-33.43 -137.83,-109.164 0,-126.895 158.98,-79.813 158.98,-148.719 0,-34.121 -36.85,-42.988 -60.05,-42.988 -31.38,0 -61.41,8.867 -90.07,23.203 l -5.46,-75.051 c 33.45,-8.867 68.93,-15.008 103.72,-15.008 74.38,0 147.39,32.754 147.39,114.617 0,126.895 -158.99,91.418 -158.99,147.364 0,30.019 29.35,38.886 53.91,38.886 33.44,0 53.89,-5.457 81.87,-15.007 l 6.15,68.906 0,0" /><path
         id="path46"
         style="fill:#050301;fill-opacity:1;fill-rule:nonzero;stroke:none"
         d="m 4041.18,270.801 c 0,-69.59 39.57,-113.934 111.22,-113.934 27.3,0 48.45,2.723 67.55,8.184 l -2.73,72.312 c -9.55,-6.133 -25.25,-9.539 -41.62,-9.539 -34.8,0 -42.98,27.969 -42.98,57.989 l 0,163.738 81.19,0 0,66.855 -81.19,0 0,99.606 -91.44,-29.336 0,-70.27 -67.55,0 0,-66.855 67.55,0 0,-178.75" /></g></g></svg>